<svg width="20" height="20" viewBox="0 0 20 20" fill="none" xmlns="http://www.w3.org/2000/svg">
<path d="M13.71 10.7101C14.6904 9.93878 15.406 8.88105 15.7572 7.68407C16.1085 6.48709 16.0779 5.21039 15.6698 4.03159C15.2617 2.85279 14.4963 1.83052 13.4801 1.10698C12.4639 0.383444 11.2474 -0.00537109 10 -0.00537109C8.75255 -0.00537109 7.53611 0.383444 6.51993 1.10698C5.50374 1.83052 4.73834 2.85279 4.33021 4.03159C3.92208 5.21039 3.89151 6.48709 4.24276 7.68407C4.59401 8.88105 5.3096 9.93878 6.29 10.7101C4.61007 11.3832 3.14428 12.4995 2.04889 13.94C0.953495 15.3806 0.26956 17.0914 0.0699967 18.8901C0.0555513 19.0214 0.0671132 19.1543 0.104022 19.2812C0.140931 19.408 0.202464 19.5264 0.285108 19.6294C0.452016 19.8376 0.69478 19.971 0.959997 20.0001C1.22521 20.0293 1.49116 19.9519 1.69932 19.785C1.90749 19.6181 2.04082 19.3753 2.07 19.1101C2.28958 17.1553 3.22168 15.3499 4.68822 14.0389C6.15475 12.7279 8.0529 12.0032 10.02 12.0032C11.9871 12.0032 13.8852 12.7279 15.3518 14.0389C16.8183 15.3499 17.7504 17.1553 17.97 19.1101C17.9972 19.3558 18.1144 19.5828 18.2991 19.7471C18.4838 19.9115 18.7228 20.0016 18.97 20.0001H19.08C19.3421 19.97 19.5817 19.8374 19.7466 19.6314C19.9114 19.4253 19.9881 19.1625 19.96 18.9001C19.7595 17.0963 19.0719 15.3811 17.9708 13.9383C16.8698 12.4955 15.3969 11.3796 13.71 10.7101ZM10 10.0001C9.20887 10.0001 8.43551 9.76553 7.77772 9.326C7.11992 8.88648 6.60723 8.26176 6.30448 7.53086C6.00173 6.79995 5.92251 5.99569 6.07686 5.21976C6.2312 4.44384 6.61216 3.73111 7.17157 3.1717C7.73098 2.61229 8.44371 2.23132 9.21964 2.07698C9.99556 1.92264 10.7998 2.00186 11.5307 2.30461C12.2616 2.60736 12.8863 3.12005 13.3259 3.77784C13.7654 4.43564 14 5.209 14 6.00012C14 7.06099 13.5786 8.07841 12.8284 8.82855C12.0783 9.5787 11.0609 10.0001 10 10.0001Z" fill="#475AD7"/>
</svg>
